<svg width="136" height="50" viewBox="0 0 136 50" fill="none" xmlns="http://www.w3.org/2000/svg">
<g clip-path="url(#clip0)">
<path d="M60.6798 0H58.0814V50H60.6798V0Z" fill="#FEC50C"/>
<path d="M101.713 34.7388C100.564 34.7378 99.4394 35.0762 98.4829 35.7112C97.5264 36.3461 96.7807 37.2491 96.34 38.306C95.8993 39.3628 95.7835 40.526 96.0072 41.6483C96.2308 42.7707 96.784 43.8018 97.5966 44.6112C98.4093 45.4207 99.4449 45.972 100.573 46.1956C101.7 46.4192 102.869 46.305 103.931 45.8673C104.994 45.4297 105.902 44.6883 106.541 43.737C107.179 42.7857 107.52 41.6672 107.52 40.523C107.52 38.9889 106.908 37.5177 105.818 36.4329C104.728 35.3482 103.25 34.7388 101.708 34.7388H101.713ZM105.368 40.523C105.369 41.2009 105.179 41.8654 104.819 42.4409L102.892 40.523L104.819 38.605C105.179 39.1804 105.37 39.845 105.368 40.523ZM104.045 43.3259L102.06 41.3507L102.54 40.8746L104.525 42.8481C104.379 43.0213 104.219 43.1812 104.045 43.3259ZM98.8985 42.8481L100.883 40.8746L101.362 41.3507L99.377 43.3259C99.203 43.1817 99.0429 43.0217 98.8985 42.8481ZM98.0533 40.523C98.0523 39.8453 98.2421 39.1809 98.601 38.605L100.528 40.523L98.601 42.4409C98.2423 41.8649 98.0526 41.2006 98.0533 40.523ZM99.3753 37.7201L101.36 39.6952L100.882 40.1713L98.8985 38.1962C99.0424 38.0227 99.2026 37.8632 99.377 37.7201H99.3753ZM101.237 40.523L101.717 40.0469L102.195 40.523L101.717 40.9991L101.237 40.523ZM104.533 38.1962L102.548 40.1713L102.068 39.6952L104.053 37.7201C104.228 37.8637 104.388 38.0231 104.533 38.1962ZM103.632 37.4256L101.707 39.3436L99.7793 37.4256C100.358 37.0693 101.025 36.8806 101.706 36.8806C102.386 36.8806 103.053 37.0693 103.632 37.4256ZM99.7793 43.6186L101.707 41.7024L103.632 43.6186C103.054 43.9761 102.387 44.1655 101.706 44.1655C101.025 44.1655 100.358 43.9761 99.7793 43.6186Z" fill="white"/>
<path d="M84.7924 10.3637H87.0544C90.0535 10.3637 91.93 8.81421 91.93 6.32591C91.93 3.8376 90.0535 2.2679 87.0544 2.2679H82.194V13.4426H84.7924V10.3637ZM84.7924 4.37093H86.909C88.4981 4.37093 89.2995 5.09101 89.2995 6.32086C89.2995 7.55071 88.4981 8.25397 86.909 8.25397H84.7924V4.37093Z" fill="white"/>
<path d="M98.6264 2.25607H96.028V13.4408H98.6264V2.25607Z" fill="white"/>
<path d="M108.481 13.6428C109.241 13.6437 109.993 13.4955 110.695 13.2068C111.398 12.9182 112.036 12.4946 112.574 11.9603L111.017 10.4092C110.51 10.9087 109.866 11.2476 109.166 11.383C108.466 11.5184 107.741 11.4442 107.083 11.1699C106.425 10.8955 105.864 10.4333 105.47 9.84162C105.076 9.24993 104.867 8.55532 104.87 7.84554C104.872 7.13577 105.086 6.44268 105.485 5.85386C105.883 5.26504 106.448 4.8069 107.107 4.53733C107.767 4.26777 108.492 4.19886 109.191 4.33933C109.891 4.4798 110.532 4.82334 111.035 5.32654L112.592 3.77535C111.917 3.103 111.085 2.60676 110.172 2.33055C109.258 2.05435 108.289 2.00671 107.352 2.19186C106.415 2.37702 105.539 2.78925 104.8 3.39204C104.062 3.99484 103.484 4.76959 103.118 5.64769C102.752 6.52579 102.609 7.48013 102.703 8.42619C102.796 9.37224 103.122 10.2808 103.652 11.0715C104.183 11.8621 104.901 12.5104 105.743 12.9589C106.585 13.4074 107.526 13.6423 108.481 13.6428Z" fill="white"/>
<path d="M89.9013 39.3535H84.7941V34.9439H82.194V46.1287H84.7941V41.5424H89.9013V46.1287H92.5014V34.9439H89.9013V39.3535Z" fill="white"/>
<path d="M122.337 42.8681L119.767 34.9439H117.36L114.71 42.8042L112.173 34.9439H109.476L113.169 46.1287H115.946L118.499 38.5544L120.971 46.1287H123.765L127.442 34.9439H124.954L122.337 42.8681Z" fill="white"/>
<path d="M101.713 39.3014L102.102 39.6816L101.713 39.3014Z" fill="white"/>
<path d="M102.956 40.5212L102.567 40.141L102.956 40.5212Z" fill="white"/>
<path d="M72.6828 38.1086C72.6828 37.4054 73.2779 36.83 74.818 36.83C75.9159 36.85 76.9899 37.1526 77.9354 37.7082L78.7367 35.7432C77.692 35.0954 76.2448 34.7589 74.8349 34.7589C71.6397 34.7589 70.1013 36.3404 70.1013 38.2433C70.1013 42.3972 76.6353 40.9587 76.6353 43.0516C76.6386 43.1758 76.6167 43.2993 76.5711 43.4149C76.5255 43.5305 76.4571 43.6358 76.3699 43.7246C76.3475 43.7483 76.3238 43.7708 76.2989 43.7919C76.8763 44.2785 77.3485 44.8766 77.6869 45.55L77.7731 45.4962C78.2187 45.2165 78.5854 44.8284 78.8386 44.3687C79.0917 43.9089 79.2231 43.3925 79.2202 42.8682C79.2202 38.7631 72.6862 40.1764 72.6862 38.1238" fill="#00AFCA"/>
<path d="M76.0082 43.9684C75.7537 43.7612 75.4804 43.5782 75.1916 43.4217L75.1477 43.3964L75.0564 43.3493L74.9871 43.314L74.9042 43.2753L74.8231 43.2383L74.7453 43.2046L74.6574 43.1676L74.583 43.1373L74.49 43.102L74.4173 43.0768L74.3193 43.0431L74.25 43.0196L74.1469 42.9893L74.0792 42.9691L73.971 42.9405L73.9068 42.9237L73.7901 42.8967L73.7327 42.885L73.6008 42.8581H73.5568L73.3878 42.8311L73.2035 42.8076L73.0345 42.7924H72.9871H72.8553H72.6541C72.0229 42.7935 71.397 42.9075 70.8063 43.1289L70.7505 43.1491C70.6321 43.1945 70.5155 43.245 70.3988 43.2988C70.1859 43.3973 69.9798 43.5097 69.7818 43.6353C69.7497 43.6488 69.7175 43.6572 69.6854 43.669L69.6161 43.6942C69.5789 43.706 69.5417 43.7178 69.5062 43.7262L69.4335 43.7447L69.3219 43.7682C69.3017 43.7682 69.2814 43.7682 69.2611 43.7783C69.1884 43.7884 69.114 43.7968 69.0396 43.8002H68.9805H68.9331H68.8621H68.7962C68.7573 43.8002 68.7167 43.8002 68.6778 43.7901H68.6271C68.551 43.7783 68.4767 43.7649 68.4023 43.7464L68.3431 43.7312L68.2332 43.6976L68.1656 43.674L68.0591 43.632L67.9965 43.6017C67.9357 43.5731 67.8765 43.5411 67.8275 43.5075C67.8038 43.494 67.7801 43.4805 67.7582 43.4654C67.7362 43.4503 67.699 43.425 67.6703 43.4048C67.6415 43.3847 67.6229 43.3695 67.5993 43.3527L67.5164 43.2854L67.4403 43.2147L67.3812 43.1609C67.3674 43.2612 67.3612 43.3625 67.3626 43.4637C67.3673 43.7732 67.4376 44.0782 67.5688 44.3588C67.651 44.5302 67.7543 44.6907 67.8765 44.8366C67.9828 44.9619 68.103 45.0748 68.2349 45.1731C68.2687 45.2 68.3042 45.2252 68.3397 45.2488C68.4944 45.3502 68.6614 45.4316 68.8368 45.491C68.8942 45.5112 68.9517 45.5281 69.0058 45.5432C69.2434 45.6016 69.4889 45.621 69.7328 45.6004C69.9783 45.5784 70.2184 45.5153 70.4428 45.4137L70.5628 45.3548C70.5442 45.3867 70.529 45.4187 70.5121 45.4507C70.48 45.5209 70.4518 45.5928 70.4276 45.666C70.3782 45.8219 70.3503 45.9838 70.3447 46.1472C70.3324 46.5048 70.4303 46.8576 70.6252 47.1583C70.8201 47.4591 71.1027 47.6933 71.4352 47.8296C71.5059 47.8578 71.5781 47.8819 71.6516 47.902H71.6702C71.7418 47.921 71.8147 47.935 71.8882 47.944C72.124 47.9727 72.3632 47.9538 72.5915 47.8885C72.7452 47.8444 72.892 47.7793 73.0277 47.695L73.0412 47.6866C73.1094 47.6429 73.1749 47.5952 73.2373 47.5436C73.4167 47.3935 73.5639 47.2091 73.6701 47.0013C73.7764 46.7935 73.8397 46.5666 73.8561 46.3339C73.8561 46.2936 73.8561 46.2549 73.8561 46.2162C73.8299 46.2467 73.8011 46.2749 73.7699 46.3003C73.758 46.3087 73.7479 46.3188 73.736 46.3255L73.6989 46.3508L73.6448 46.3844L73.5907 46.413L73.5416 46.4349C73.5101 46.4468 73.4779 46.4569 73.4453 46.4652L73.3979 46.477C73.3774 46.482 73.3565 46.4853 73.3354 46.487H73.2897C73.2734 46.4879 73.257 46.4879 73.2407 46.487C73.1792 46.4874 73.1178 46.4801 73.0581 46.4652C72.8841 46.4268 72.7277 46.3321 72.6135 46.196C72.602 46.1848 72.5918 46.1724 72.5831 46.159C72.5491 46.1143 72.5196 46.0664 72.4952 46.016C72.4432 45.9037 72.4172 45.7812 72.4191 45.6576C72.4213 45.4491 72.5036 45.2492 72.649 45.099L72.7099 45.0452C72.8516 44.9247 73.0307 44.8563 73.217 44.8517H73.2289C73.3599 44.8751 73.4892 44.9072 73.616 44.9476C74.3529 45.1725 74.9864 45.6492 75.4046 46.2936C76.0972 46.2283 76.7717 46.0367 77.3945 45.7283C77.0612 45.0583 76.588 44.4669 76.0065 43.9937" fill="#00AFCA"/>
<path d="M74.4968 18.1264C73.4973 18.1245 72.5142 18.3791 71.6425 18.8656C70.7707 19.3521 70.0398 20.0542 69.5202 20.9039C69.0007 21.7536 68.7101 22.7223 68.6766 23.7164C68.643 24.7105 68.8676 25.6964 69.3287 26.5789C69.6599 25.8076 70.1718 25.1264 70.8215 24.592L70.933 24.5045C70.8398 23.9392 70.8837 23.36 71.061 22.815C71.2384 22.27 71.5441 21.7752 71.9526 21.3716C72.3611 20.9681 72.8607 20.6676 73.4096 20.4952C73.9585 20.3228 74.5409 20.2835 75.1082 20.3806C75.6755 20.4776 76.2112 20.7082 76.6708 21.0531C77.1303 21.398 77.5004 21.8473 77.75 22.3634C77.9997 22.8796 78.1218 23.4476 78.1061 24.0202C78.0904 24.5929 77.9374 25.1535 77.6598 25.6553C77.6209 25.7243 77.5787 25.7899 77.5347 25.8572C77.5618 25.8992 77.5888 25.9413 77.6142 25.985C78.019 26.6918 78.2561 27.4814 78.3073 28.2933C78.4003 28.2109 78.4916 28.1251 78.5795 28.041C79.4022 27.2349 79.9653 26.2034 80.197 25.0778C80.4288 23.9522 80.3188 22.7835 79.881 21.7204C79.4432 20.6572 78.6974 19.7478 77.7386 19.1077C76.7798 18.4677 75.6513 18.1261 74.4968 18.1264Z" fill="#00AFCA"/>
<path d="M77.9354 27.903C77.9039 27.6936 77.8598 27.4863 77.8036 27.2822C77.7748 27.1829 77.7444 27.0836 77.7106 26.9844C77.6422 26.7915 77.5626 26.6028 77.4722 26.4191C77.4266 26.3282 77.3792 26.2374 77.3285 26.1516C76.5576 24.8157 75.1899 23.9291 73.6295 23.9291C73.1512 23.9288 72.6767 24.0131 72.2281 24.1781C72.0086 24.2586 71.7965 24.3577 71.5941 24.4742C71.3906 24.591 71.1972 24.7243 71.0159 24.8729C70.8001 25.0479 70.6014 25.2428 70.4225 25.4551C70.2392 25.6696 70.0762 25.9005 69.9356 26.1449C69.8984 26.2105 69.8613 26.2761 69.8258 26.3434C69.7564 26.4763 69.6939 26.6159 69.6364 26.7573C69.6077 26.8279 69.5806 26.9003 69.5553 26.9726C69.463 27.2308 69.3935 27.4965 69.3473 27.7667C69.3426 27.8114 69.3353 27.8558 69.3253 27.8996C69.2596 28.2352 69.1192 28.5519 68.9144 28.8265C68.7097 29.101 68.4457 29.3264 68.1419 29.4861C67.9753 29.5733 67.7988 29.6406 67.6162 29.6864C67.4908 29.7171 67.363 29.7368 67.2341 29.7452C67.4488 29.9787 67.71 30.1651 68.001 30.2926C68.2921 30.4201 68.6067 30.4858 68.9247 30.4855C69.035 30.4853 69.1451 30.4774 69.2543 30.462C69.4889 30.4264 69.7169 30.356 69.9306 30.2533C70.1618 30.1401 70.3721 29.9888 70.5527 29.8058C70.6962 29.6616 70.8201 29.4992 70.9212 29.323C71.0372 29.1244 71.1222 28.9094 71.1731 28.6853C71.3363 29.1039 71.6467 29.4492 72.0467 29.6569C72.4467 29.8646 72.9089 29.9205 73.3472 29.8142C73.4885 29.7791 73.6253 29.7277 73.7546 29.6611C74.0548 29.5048 74.3064 29.2699 74.4822 28.9817C74.6579 28.6935 74.7513 28.3629 74.7521 28.0258C74.7525 27.7596 74.6946 27.4965 74.5825 27.2547C74.4704 27.013 74.3067 26.7985 74.1029 26.626C74.1097 26.6683 74.1131 26.7111 74.113 26.7539C74.1136 26.8863 74.0833 27.0169 74.0247 27.1357C73.966 27.2545 73.8805 27.3582 73.7749 27.4386C73.7014 27.4933 73.6199 27.5365 73.5332 27.5665C73.4438 27.5963 73.3502 27.6116 73.2559 27.6119C73.0419 27.6118 72.8355 27.5325 72.6768 27.3895C72.5182 27.2465 72.4185 27.05 72.3971 26.838C72.3971 26.8111 72.3971 26.7825 72.3971 26.7539C72.3967 26.6053 72.4352 26.4592 72.5087 26.3299C72.5322 26.2884 72.5594 26.249 72.5898 26.2122C72.6446 26.1468 72.709 26.0901 72.7809 26.0439C72.8529 25.9949 72.9322 25.9574 73.0159 25.9329C73.0552 25.9217 73.0953 25.9133 73.1359 25.9076C73.3031 25.8762 73.4729 25.8604 73.6431 25.8605C74.114 25.8681 74.5755 25.9936 74.9847 26.2257C75.394 26.4577 75.7378 26.7886 75.9845 27.188C76.0234 27.2502 76.0623 27.3141 76.0978 27.3798C76.1704 27.5132 76.2337 27.6515 76.2871 27.7936C76.4246 28.1653 76.4944 28.5584 76.4934 28.9545C76.4932 29.09 76.4853 29.2254 76.4697 29.36C76.8782 29.2131 77.2689 29.0212 77.6345 28.788C77.7545 28.7106 77.8729 28.6298 77.9861 28.544C77.9825 28.3272 77.965 28.1109 77.9337 27.8963" fill="#00AFCA"/>
<path d="M86.4745 18.6076L81.7138 29.2405H84.2497L85.1964 26.9608H90.1565L91.1033 29.2405H93.6966L88.9241 18.6076H86.4745ZM85.9876 25.0933L87.6782 21.0235L89.3687 25.0933H85.9876Z" fill="white"/>
<path d="M96.3931 29.2321H105.734V27.2284H99.6593L105.505 20.1958V18.6009H96.5165V20.6047H102.254L96.3931 27.6372V29.2321Z" fill="white"/>
<path d="M111.916 26.9541H116.876L117.823 29.2338H120.416L115.635 18.6076H113.196L108.435 29.2405H110.971L111.916 26.9541ZM114.403 21.0168L116.093 25.0866H112.707L114.403 21.0168Z" fill="white"/>
<path d="M132.541 26.9709C133.305 25.7682 133.598 24.3275 133.362 22.924C133.127 21.5204 132.38 20.2522 131.265 19.3616C130.15 18.471 128.744 18.0203 127.316 18.0956C125.888 18.171 124.538 18.767 123.524 19.77C122.51 20.7729 121.902 22.1125 121.817 23.533C121.732 24.9535 122.176 26.3553 123.064 27.4709C123.951 28.5864 125.221 29.3375 126.63 29.5808C128.039 29.824 129.488 29.5424 130.702 28.7896L131.582 29.6662L135.249 29.6779L132.541 26.9709ZM127.626 27.4756C126.848 27.4756 126.09 27.2249 125.466 26.7609C124.842 26.2969 124.386 25.6446 124.165 24.9012C123.944 24.1579 123.971 23.3635 124.242 22.6367C124.512 21.9098 125.011 21.2895 125.665 20.8683C126.319 20.4471 127.092 20.2477 127.869 20.2998C128.646 20.3519 129.386 20.6527 129.977 21.1574C130.568 21.662 130.979 22.3434 131.149 23.0998C131.319 23.8562 131.238 24.647 130.92 25.3541L129.814 24.2504L127.976 26.0775L129.077 27.1711C128.62 27.3702 128.127 27.4728 127.628 27.4723" fill="white"/>
<path d="M72.3954 11.4523H72.3667C72.3261 11.4613 72.2855 11.468 72.2449 11.4725H72.2348H72.1875L72.0607 11.4843H72.0302H71.9153C71.562 11.4849 71.2136 11.4031 70.8979 11.2453C70.5823 11.0875 70.3083 10.8582 70.0979 10.5758V13.3888H78.801V11.3329H72.7707L72.7386 11.3463C72.6288 11.3902 72.5157 11.4257 72.4005 11.4523" fill="#00AFCA"/>
<path d="M70.6473 4.8875C71.3378 4.88507 72.0237 4.99883 72.676 5.22399V4.30707H78.5931V2.22591H70.0911V4.91779C70.2754 4.90096 70.463 4.89255 70.6473 4.89255" fill="#00AFCA"/>
<path d="M70.5273 7.41445H70.5966H70.7809C70.884 7.41445 70.9872 7.42791 71.0903 7.44137L71.2171 7.45651C71.4104 7.52737 71.573 7.66299 71.6769 7.8401C71.6926 7.86555 71.7068 7.89196 71.7192 7.91918C71.7895 8.07125 71.8153 8.23995 71.7938 8.40597C71.7723 8.572 71.7042 8.72863 71.5975 8.85797C71.5813 8.8798 71.5638 8.9006 71.545 8.92022L71.5062 8.95387C71.3436 9.1065 71.1278 9.19035 70.9043 9.18773C70.8705 9.18773 70.835 9.18773 70.8012 9.18773C70.6533 9.17042 70.5121 9.11664 70.3904 9.03126C70.284 8.95782 70.1947 8.8626 70.1283 8.75198C70.1103 8.71974 70.094 8.68661 70.0793 8.65271V9.90948C70.0793 9.93472 70.0962 9.95827 70.1064 9.98351C70.1419 10.0689 70.1837 10.1515 70.2315 10.2308C70.4692 10.6346 70.8476 10.9375 71.2948 11.0821C71.3472 11.099 71.4013 11.1124 71.4639 11.1259L71.5163 11.136C71.5518 11.1444 71.589 11.1511 71.6262 11.1562H71.6904C71.7246 11.1613 71.759 11.1646 71.7936 11.1663H71.8595C71.9068 11.1663 71.9558 11.1663 72.0032 11.1663H72.0319L72.1367 11.1562H72.1841L72.2889 11.1377H72.3193C72.4189 11.1151 72.5166 11.0853 72.6118 11.0485L72.6693 11.0233L72.7149 11.0031L72.7589 10.9829L72.8299 10.9459L72.8755 10.9206C72.9782 10.8602 73.075 10.7904 73.1646 10.712C73.2018 10.68 73.2373 10.6464 73.2728 10.6111C73.6134 10.2655 73.8103 9.80454 73.8239 9.32063V9.26175C73.8239 9.21801 73.8239 9.17427 73.8239 9.12884C73.8239 9.08342 73.8121 9.00939 73.8036 8.9505C73.851 9.00266 73.9017 9.04977 73.9524 9.09687L73.9778 9.11875C74.0285 9.16249 74.0809 9.20455 74.135 9.24324C74.1489 9.25484 74.1636 9.26551 74.179 9.27521C74.2145 9.30045 74.2516 9.32232 74.2888 9.34587L74.3683 9.39466C74.4224 9.42494 74.4782 9.45355 74.5374 9.48047L74.5661 9.49392C75.0595 9.71949 75.6158 9.76939 76.1417 9.63525C76.1881 9.62514 76.2338 9.61222 76.2787 9.59655C76.42 9.55319 76.5569 9.49687 76.6878 9.42831L76.7706 9.38289C76.8146 9.35597 76.8602 9.32905 76.9025 9.29877C76.961 9.26144 77.0174 9.221 77.0715 9.17763C77.0903 9.16341 77.1084 9.14824 77.1256 9.1322C77.1696 9.09519 77.2102 9.05818 77.2507 9.0178L77.2693 8.9993C77.3082 8.9606 77.3454 8.92022 77.3826 8.87816L77.3944 8.86301C77.4249 8.826 77.4553 8.78899 77.4823 8.75198L77.5009 8.72674C77.528 8.68973 77.5533 8.65271 77.5787 8.61402L77.5905 8.59551C77.6486 8.50251 77.7006 8.40585 77.7461 8.30613C77.7664 8.25734 77.7866 8.20855 77.8052 8.15976V8.14798C77.8221 8.09751 77.8391 8.04872 77.8543 7.99825C77.8695 7.94441 77.883 7.89226 77.8948 7.83842L77.8289 7.86702L77.8086 7.87543C77.7647 7.89562 77.719 7.91413 77.6751 7.93095L77.6362 7.94441C77.5939 7.95955 77.55 7.9747 77.5077 7.98647L77.4621 7.99825L77.337 8.03022L77.2862 8.03863L77.1645 8.05882H77.1104L76.9904 8.07059H76.9346H76.8315H76.8163H76.7588C76.7199 8.07059 76.681 8.07059 76.6438 8.07059H76.5863L76.4714 8.05714L76.4156 8.04704C76.3784 8.04704 76.3378 8.03358 76.3006 8.02349L76.2499 8.01171L76.1316 7.97974L76.0893 7.9646L75.9676 7.92254L75.9338 7.9074L75.8087 7.85356L75.7833 7.8401C75.7394 7.81991 75.6971 7.79804 75.6531 7.77281C75.5041 7.68816 75.3647 7.58776 75.2373 7.47333C75.2289 7.46422 75.221 7.45467 75.2136 7.44473C75.1578 7.37407 75.0986 7.30509 75.0445 7.23611C75.0175 7.20583 74.9921 7.17554 74.9634 7.14526C74.889 7.06114 74.8095 6.97702 74.7284 6.89963H74.7182C74.6472 6.82897 74.5729 6.76167 74.4985 6.69606L74.4359 6.6439C74.3784 6.59343 74.3193 6.54463 74.2669 6.49753L74.1908 6.44032C74.135 6.39658 74.0775 6.35452 74.0217 6.31246L73.9406 6.25862C73.8831 6.21825 73.8256 6.17955 73.7715 6.14254L73.6887 6.09374C73.6295 6.05673 73.5687 6.0214 73.5095 5.98775L73.4283 5.94401C73.3658 5.91036 73.3015 5.87671 73.239 5.84643L73.1612 5.80941C73.0959 5.77801 73.0282 5.74773 72.9584 5.71857L72.8907 5.68996L72.6946 5.61257L72.6693 5.60416C72.5763 5.56883 72.4816 5.53854 72.3869 5.50994L72.299 5.48302L72.0962 5.42919L71.9981 5.40395L71.7834 5.35853L71.6803 5.31646C71.5839 5.29964 71.4876 5.2845 71.3895 5.27104H71.332C71.2526 5.26095 71.1731 5.25253 71.0953 5.24748H70.9973C70.928 5.24748 70.8604 5.24749 70.791 5.23907H70.6947H70.4851H70.387L70.0844 5.25926V7.46997C70.1824 7.45482 70.2805 7.44305 70.3802 7.43632H70.4005H70.5206" fill="#00AFCA"/>
<path d="M39.4647 31.9072V30.775C38.4267 30.775 37.5814 29.8311 37.5814 28.6702C37.5814 27.5094 38.4267 26.5655 39.4647 26.5655C40.5028 26.5655 41.348 27.5094 41.348 28.6702H42.4858C42.4858 26.8852 41.1333 25.4333 39.4647 25.4333C37.7961 25.4333 36.4437 26.8852 36.4437 28.6702C36.4437 30.4553 37.7961 31.9072 39.4647 31.9072Z" fill="white"/>
<path d="M50.2409 10.4423H49.3635V9.97459V9.88205C49.1302 8.49574 48.0685 7.57545 46.9443 6.60132C46.1784 5.93677 45.3856 5.25538 44.8378 4.38725C44.5589 3.94646 44.476 3.53594 44.5842 3.13048C44.8344 2.19842 45.9959 1.57928 46.006 1.57255L45.4802 0.563097C45.416 0.596745 43.979 1.3572 43.5344 2.68295L38.1888 6.76788C38.1584 6.44486 38.1414 6.24297 38.1296 6.12183L38.2818 6.07977L38.2277 5.5986C38.133 4.75739 38.1178 4.53699 38.1161 4.49998V4.30818L36.5794 2.61061C36.5134 1.65499 35.9031 0.0196771 33.9894 0.00958252H33.9793C33.0325 0.00958252 32.4324 0.640489 31.9506 1.1469C31.391 1.73575 31.1374 1.94605 30.6962 1.81987L29.8407 1.5776L29.9777 2.45246C29.9996 2.58706 30.2143 3.78158 31.2135 4.13489C31.383 4.19371 31.5614 4.2233 31.7409 4.22237C32.3969 4.22237 33.1475 3.84719 33.9776 3.09683C34.0449 3.03861 34.1238 2.99531 34.2092 2.96978C34.2946 2.94426 34.3845 2.9371 34.4729 2.94878L33.2895 4.31491V5.78871L33.4028 6.34728C33.3335 7.25074 32.5964 8.04821 32.2954 8.33927L30.6674 8.44695L26.2432 10.2858C25.8932 7.7235 25.1781 5.26548 23.2002 3.80345C21.3405 2.43227 18.6728 2.14962 15.0398 2.93868L14.8166 3.01103L14.6763 2.84279L14.1995 2.28927L13.7684 2.85288L13.4455 2.07223L12.9215 2.28927C11.4287 2.92186 11.4726 4.84151 11.4929 5.1864V5.28735L10.9418 5.54476C8.52767 6.61142 8.66122 9.53379 9.06696 10.9285L9.46763 12.2963L10.1202 11.0278C10.1658 10.9403 10.2199 10.8427 10.2808 10.7401L10.1354 18.3194L13.1852 20.2138L15.366 18.2605L16.0778 15.2524L16.7033 14.2749L16.8351 14.2395C16.7084 15.2944 16.262 17.6178 14.7135 21.8912L10.1726 20.7135L1.65041 25.7406L1.49657 27.0748L-0.00803757 28.1919V31.1311L3.77885 30.3504L4.14232 27.995L7.50656 26.4321L3.88704 30.8198L4.12879 33.2459L3.94452 35.0865L5.30712 37.5462L8.11348 34.9064L6.83371 32.4737L11.6333 27.4937L18.9822 32.7664L20.4107 31.9134C21.5214 32.7412 25.2863 35.2648 29.7528 34.9115L29.932 35.3775L33.0849 35.6635L33.4822 35.28L34.7485 38.0576L30.3614 38.6095L27.2491 40.7142L25.8324 43.2698L30.3293 43.6063V42.3781L30.6015 42.0164L36.7197 40.8505L38.5083 42.2317L32.0047 46.924L31.5178 49.9944H36.0959L35.7577 48.0866L37.4821 46.9543C38.767 48.2212 40.1211 48.6485 41.3603 48.6485C43.8793 48.6485 45.9249 46.8921 45.9553 46.8651L46.5013 46.3856L45.9029 45.9734C45.0576 45.3964 42.8683 43.5878 42.8007 42.1628C42.706 40.1623 43.6713 39.6711 45.0086 38.9914C46.4929 38.236 48.3407 37.2972 48.5706 33.9576C48.765 31.1597 46.2038 29.6522 44.5267 29.134C44.5267 29.0533 44.5267 28.9658 44.5267 28.8918C44.5267 25.4613 41.9419 22.6668 38.7636 22.6668C38.3074 22.6647 37.8528 22.7213 37.4111 22.835L38.133 20.6277L37.6596 18.5129L38.0924 15.673L42.9089 19.9093C42.9241 19.9934 42.941 20.0776 42.9647 20.1617C43.3467 21.5766 44.8919 22.3909 44.9561 22.4245L45.4836 21.4151C45.4718 21.4151 44.312 20.7909 44.0618 19.8572C43.9536 19.4517 44.0365 19.0412 44.3154 18.6004C44.8564 17.7474 45.6374 17.0357 46.3931 16.3459C47.4193 15.4105 48.3914 14.5205 48.7447 13.3361L49.7844 13.6473L49.9112 11.5695H50.2409V10.4423ZM46.1936 7.45432C47.186 8.31572 48.0533 9.06103 48.2223 10.0234V10.4423H35.2523L43.4904 4.13994C43.5757 4.43744 43.7044 4.72087 43.8725 4.98115C44.5081 5.98219 45.4041 6.75779 46.1936 7.44254V7.45432ZM35.1762 6.55758C35.1874 6.91155 35.067 7.25721 34.8381 7.52834C34.5884 7.78997 34.2742 7.98197 33.9268 8.08522C34.2311 7.62223 34.4296 7.09846 34.5084 6.55085C34.6961 6.55085 34.9192 6.56263 35.1711 6.55085L35.1762 6.55758ZM36.1381 8.346L35.8389 8.11719C36.1744 7.64442 36.341 7.07341 36.3122 6.49533C36.5354 6.47009 36.7687 6.43645 37.0071 6.3927C37.029 6.62824 37.0629 7.00174 37.117 7.58891L36.1381 8.346ZM33.2117 2.2573C32.2194 3.15067 31.7477 3.12038 31.5905 3.06655C31.5122 3.0369 31.4429 2.98764 31.3893 2.92354C31.9844 2.7553 32.4222 2.29431 32.7739 1.92586C33.2371 1.43964 33.5482 1.14354 33.9759 1.14354C34.2517 1.13251 34.5241 1.20771 34.7549 1.35857C34.9856 1.50944 35.1631 1.7284 35.2624 1.98475C34.6386 1.7408 33.8508 1.67686 33.2067 2.2573H33.2117ZM34.4137 4.73719L35.5971 3.36939H35.7189L36.9783 4.76243C36.9902 4.89198 37.0071 5.06191 37.0274 5.24024C36.1655 5.41401 35.285 5.4779 34.407 5.43036L34.4137 4.73719ZM30.9176 9.56576L32.5304 9.45808H32.571C32.8702 9.45808 33.9995 9.41938 34.9378 8.8911L35.1846 9.05935L34.2852 9.74746L32.9649 9.56407L32.0841 9.94094L29.5635 10.2774L29.7139 11.4013L32.385 11.0379L33.1204 10.7233L33.6276 10.7939L33.3808 11.9884H32.8652L26.4697 12.5689C26.4393 12.1971 26.4055 11.8202 26.3683 11.4433L30.9176 9.56576ZM30.7097 17.7137L28.7486 18.8578L27.6497 19.0075L27.2829 17.9543L27.2727 17.9291C26.8467 16.8675 26.6946 15.3466 26.5593 13.7113L30.3766 13.363L30.7097 17.7137ZM22.5036 4.71364C24.8333 6.4314 25.1274 10.0974 25.3878 13.331C25.5399 15.2254 25.6836 17.0155 26.2111 18.3362L26.4917 19.1455C25.714 19.1842 25.1392 19.0445 24.7403 18.7131C23.8307 17.9543 23.7986 16.1171 23.7631 14.1706C23.7276 12.224 23.6887 10.0267 22.7488 8.3359C20.6001 4.46633 17.4083 4.57064 15.9408 4.87179V4.75402C15.9408 4.6312 15.9408 4.50334 15.5638 3.98347C18.6982 3.34583 20.9737 3.58305 22.4952 4.71196L22.5036 4.71364ZM3.10769 27.2783L2.77972 29.4049L1.14662 29.7549L1.42219 28.7942L2.55149 27.6703L2.72055 26.4321L10.3586 21.9249L14.3314 22.9579C14.1962 23.3179 14.0558 23.6864 13.9054 24.07L11.6113 23.2287L9.80405 23.6561L9.18192 24.4081L3.10769 27.2783ZM29.9472 40.9935L29.1814 42.0029V42.3848L27.6751 42.2687L28.1062 41.4931L30.7672 39.698L35.232 39.1344L35.5887 39.9184L29.9472 40.9935ZM47.4227 33.8886C47.2367 36.5805 45.9012 37.2703 44.476 37.9903C43.0914 38.6953 41.5209 39.4944 41.6494 42.225C41.7305 43.9411 43.5936 45.642 44.6163 46.4496C43.4769 47.2067 40.8447 48.4954 38.4424 46.3217L41.2048 44.5181L40.5725 43.5642L34.4864 47.56L34.7214 48.8689H32.8415L33.0461 47.5734L40.4034 42.2704L36.5608 39.3026L34.341 34.4404L35.0984 33.7086C36.1217 34.6434 37.4672 35.1507 38.856 35.1253C40.2449 35.0999 41.5708 34.5439 42.5589 33.5723C42.2343 35.2312 39.8743 36.3853 39.8371 36.4021L40.0805 36.9069L40.3274 37.4217C40.4964 37.3376 44.5538 35.3674 43.5902 32.2785C43.9597 31.6634 44.2237 30.9913 44.3712 30.2899C45.4109 30.6533 47.5749 31.6762 47.4142 33.8852L47.4227 33.8886ZM43.3721 28.8968C43.3721 31.7048 41.2977 33.9895 38.7467 33.9895C36.1956 33.9895 34.1213 31.7048 34.1213 28.8968C34.1213 26.0889 36.1956 23.8058 38.7467 23.8058C41.2977 23.8058 43.3721 26.0905 43.3721 28.8968ZM36.9479 20.5705L36.0215 23.4155C34.2142 24.467 32.9784 26.5297 32.9784 28.8968C32.9721 30.3342 33.4427 31.7335 34.3174 32.8774L32.6522 34.4875L30.7249 34.3193L30.7114 34.2839L33.0207 32.4047L26.5407 24.0077L26.7402 22.6937L30.566 21.4252L30.2059 20.3501L25.7191 21.8391L25.3421 24.3156L31.4434 32.2364L29.5161 33.8011C24.8366 34.0955 20.8638 30.835 20.8232 30.8013L20.5121 30.5422L19.043 31.4188L11.4946 25.9997L5.44406 32.2785L6.70354 34.6709L5.58945 35.714L5.10595 34.8425L5.26655 33.2375L5.05354 31.1748L9.9021 25.3166L10.438 24.6689L11.5284 24.4081L14.5427 25.5168L14.7473 25.002C17.7142 17.5219 18.005 14.4582 18.0202 13.654C18.5777 13.2297 18.962 12.619 19.1022 11.9346L17.9915 11.689C17.6973 13.0063 16.3415 13.2032 16.2874 13.2032L16.0186 13.2351L15.0144 14.8065L14.3382 17.6565L13.0567 18.804L11.2715 17.7036L11.4405 9.26965C11.7972 8.95167 12.1709 8.7481 12.5056 8.80867L12.7118 7.6949C11.6011 7.48965 10.624 8.35778 9.96465 9.1889C9.96465 8.24842 10.2318 7.10101 11.4067 6.58114L12.5766 6.03771L12.6358 5.1864V5.14266C12.6358 5.13088 12.5749 4.30145 12.9164 3.74288L13.0939 4.1719C12.8331 5.03769 12.8664 5.96487 13.1886 6.80994L14.2334 6.36074C13.9759 5.65236 14.0007 4.87275 14.3027 4.182C14.484 4.40511 14.6532 4.63761 14.8098 4.87852V6.45327L15.596 6.13193C15.7498 6.06968 19.4065 4.63457 21.7581 8.87765C22.5594 10.3212 22.5949 12.2846 22.6287 14.184C22.6676 16.3947 22.7065 18.4826 24.0133 19.5678C24.578 20.0389 25.3134 20.2727 26.2483 20.2727C26.4494 20.2727 26.6608 20.2609 26.8805 20.2391L27.0496 20.2172L27.3218 20.1802L29.1374 19.9295L31.3115 18.6643C32.1449 19.0867 33.0696 19.2993 34.0046 19.2834C34.194 19.2834 34.3901 19.2834 34.5946 19.2599L34.5 18.131C33.1475 18.2437 32.2413 17.8769 31.8593 17.675L31.5212 13.2419L32.899 13.1157H34.3174L34.4526 12.4595L37.0798 14.7712L36.5067 18.5432L36.9479 20.5705ZM45.6172 15.5131C44.8074 16.2517 43.9689 17.0172 43.3467 17.9981C43.236 18.1687 43.142 18.3496 43.0661 18.5381L38.7653 14.7577L47.1218 13.7365L47.3923 13.5901C47.0085 14.2412 46.3492 14.8452 45.6172 15.5131ZM48.7278 12.1483L48.033 11.9397L46.7668 12.6345L37.6258 13.7499L35.1424 11.5628H48.7633L48.7278 12.1483Z" fill="white"/>
<path d="M36.3558 20.0697L36.1275 17.8909L36.4454 17.8623L36.3422 16.7351L36.0193 16.7637L35.9754 16.2977C35.9624 16.1589 35.9217 16.024 35.8558 15.901C35.79 15.7779 35.7001 15.6691 35.5916 15.581C35.4837 15.4922 35.359 15.4258 35.2248 15.3859C35.0906 15.3461 34.9498 15.3334 34.8106 15.3488L34.2138 15.411L34.3322 16.5366L34.8495 16.4827L34.885 16.8663L34.4877 16.9034L34.5908 18.0306L34.9949 17.9952L35.2299 20.2514L35.2383 20.3052C35.3059 20.6333 35.6576 21.239 36.5502 21.4274L36.7886 20.3204C36.4826 20.2547 36.3828 20.1218 36.3558 20.0697Z" fill="white"/>
<path d="M41.5104 30.5142C41.7589 29.0319 40.6008 28.2849 39.955 28.0982L39.6321 29.1834C39.7826 29.2305 40.5265 29.5047 40.3878 30.3291C40.1511 31.744 41.1553 32.4557 41.8874 32.5869L42.097 31.4748C41.8806 31.4294 41.3886 31.246 41.5104 30.5142Z" fill="white"/>
</g>
<defs>
<clipPath id="clip0">
<rect width="135.246" height="50" fill="white"/>
</clipPath>
</defs>
</svg>
